# xmcd
#
# Track frame offsets:
#	150
#	29184
#	55015
#	79878
#	103028
#	128929
#	150076
#	174666
#	199930
#	219370
#	246374
#	270823
#	301502
#	323064
#
# Disc length: 4639 seconds
#
# Revision: 0
# Processed by: cddbd v1.5.1PL0 Copyright (c) Steve Scherf et al.
# Submitted via: dBpowerAMP V4.0
#
DISCID=b4121d0e
DTITLE=Glenn Jones - Greatest Hits: Giving Myself to You
DYEAR=1998
DGENRE=R and B
TTITLE0=I Am Somebody
TTITLE1=Keep On Doin'
TTITLE2=Show Me
TTITLE3=Finesse
TTITLE4=You're The Only One I Love
TTITLE5=Finder Of Lost Loves
TTITLE6=Bring Back Your Love
TTITLE7=Giving Myself To You
TTITLE8=Stay (1986)
TTITLE9=We've Only Just Begun (The Romance Is Not Over)
TTITLE10=At Last
TTITLE11=Stay (1990)
TTITLE12=Here I Go Again
TTITLE13=I've Been Searching' (Nobody Like You)
EXTD=
EXTT0=
EXTT1=
EXTT2=
EXTT3=
EXTT4=
EXTT5=
EXTT6=
EXTT7=
EXTT8=
EXTT9=
EXTT10=
EXTT11=
EXTT12=
EXTT13=
PLAYORDER=
